<svg id="Layer_1" data-name="Layer 1" xmlns="http://www.w3.org/2000/svg" viewBox="0 0 368 376"><defs><style>.cls-1{fill:#fafafa;}.cls-2{fill:#88d3ed;}.cls-3{fill:#666;}.cls-4,.cls-5,.cls-6{fill:none;}.cls-4{stroke:#fff;stroke-width:3px;}.cls-4,.cls-5{stroke-linejoin:bevel;}.cls-5,.cls-6{stroke:#666;}.cls-7{fill:#8c8c8c;}.cls-8{fill:#fff;}</style></defs><title>D22_OverView_v2</title><rect class="cls-1" width="368" height="376"/><path class="cls-2" d="M107.6,59.9H263.8V24c0-3.3,0-5.2-.1-7a20.21,20.21,0,0,0-.7-4.5,14.71,14.71,0,0,0-3.8-6.8,14.71,14.71,0,0,0-6.8-3.8,20.21,20.21,0,0,0-4.5-.7c-1.8-.1-3.7-.1-7-.1h-8.6a3.26,3.26,0,0,0-2.7.8A2.63,2.63,0,0,0,229,4a12.68,12.68,0,0,1-.3,3.4,8.11,8.11,0,0,1-2.4,4.3,9.3,9.3,0,0,1-4.3,2.4,23.74,23.74,0,0,1-4.8.3H153.4a24.25,24.25,0,0,1-4.8-.3,8.11,8.11,0,0,1-4.3-2.4,9.3,9.3,0,0,1-2.4-4.3,18.7,18.7,0,0,1-.3-3.4,2.63,2.63,0,0,0-.6-2.1,3.26,3.26,0,0,0-2.7-.8h-8.6c-3.3,0-5.2,0-7,.1a20.22,20.22,0,0,0-4.5.7,14.71,14.71,0,0,0-6.8,3.8,14.71,14.71,0,0,0-3.8,6.8,20.21,20.21,0,0,0-.7,4.5c-.1,1.8-.1,3.7-.1,7V60.2A2,2,0,0,1,107.6,59.9Z"/><path class="cls-3" d="M293.4,29h0l-2.1,1.4v-1l2.1-1.5h1v7.8h-1Z"/><path class="cls-3" d="M300.2,34.1h-3.8v-.9c.7-1.2,1.9-3.2,3.3-5.3h1.4v5.3h1.1v.9h-1.1v1.6h-.9Zm-2.8-.9h2.8V28.8h-.1c-.8,1.2-1.8,2.8-2.7,4.4Z"/><path class="cls-3" d="M303.7,33.6h1a1.73,1.73,0,1,0,1.7-2.2,1.7,1.7,0,0,0-1.6.9h-.9l.4-4.4h4.3v.9H305l-.2,2.5h.1a2.18,2.18,0,0,1,1.6-.7,2.44,2.44,0,0,1,2.5,2.6,2.49,2.49,0,0,1-2.7,2.6A2.39,2.39,0,0,1,303.7,33.6Z"/><path class="cls-3" d="M318.9,32.8c0,1.8-1,3-2.4,3a2,2,0,0,1-1.8-1h-.1v2.8h-.9V29.9h.9v1h.1a2.14,2.14,0,0,1,1.9-1.1C318,29.8,318.9,31,318.9,32.8Zm-.9,0c0-1.4-.6-2.2-1.7-2.2s-1.7.8-1.7,2.2.7,2.2,1.7,2.2A2,2,0,0,0,318,32.8Z"/><path class="cls-3" d="M320.1,32.8c0-1.9,1-3,2.7-3s2.7,1.1,2.7,3-1,3-2.7,3S320.1,34.6,320.1,32.8Zm4.4,0c0-1.4-.6-2.2-1.7-2.2s-1.7.8-1.7,2.2.6,2.2,1.7,2.2S324.5,34.1,324.5,32.8Z"/><path class="cls-3" d="M326.7,28.1a.58.58,0,0,1,.6-.6.6.6,0,1,1-.6.6Zm.2,1.8h.9v5.8h-.9Z"/><path class="cls-3" d="M329.6,29.9h.9v.9h.1a1.82,1.82,0,0,1,1.7-1,1.87,1.87,0,0,1,2,2.1v3.7h-.9V32.1c0-1-.4-1.5-1.4-1.5a1.4,1.4,0,0,0-1.5,1.6v3.4h-.9V29.9Z"/><path class="cls-3" d="M337.3,28.4v1.5h1.3v.8h-1.3V34c0,.7.3,1,.9,1h.4v.8a4.33,4.33,0,0,0-.5.1c-1.2,0-1.7-.4-1.7-1.5V30.9h-.9v-.8h.9V28.6h.9v-.2Z"/><path class="cls-3" d="M341.9,29.8c1.2,0,2.1.6,2.2,1.6h-.9c-.1-.5-.6-.8-1.3-.8s-1.2.3-1.2.9c0,.4.3.6,1,.8l.9.2c1.1.3,1.6.7,1.6,1.6a2.07,2.07,0,0,1-2.3,1.8c-1.3,0-2.2-.6-2.3-1.6h1a1.31,1.31,0,0,0,1.4.8c.8,0,1.3-.4,1.3-.9s-.3-.7-.9-.8l-1-.2c-1.1-.3-1.6-.7-1.6-1.6C339.7,30.5,340.7,29.8,341.9,29.8Z"/><path class="cls-3" d="M280.4,182.6a2,2,0,0,1,1.6-2v-.1a1.71,1.71,0,0,1-1.3-1.7,2.54,2.54,0,0,1,5,0,1.71,1.71,0,0,1-1.3,1.7v.1a2,2,0,0,1,1.6,2c0,1.3-1.1,2.3-2.8,2.3S280.4,183.9,280.4,182.6Zm4.6-.1c0-.9-.7-1.5-1.8-1.5s-1.8.6-1.8,1.5.7,1.5,1.8,1.5S285,183.4,285,182.5Zm-.3-3.6a1.52,1.52,0,1,0-1.5,1.3A1.32,1.32,0,0,0,284.7,178.9Z"/><path class="cls-3" d="M289.4,178h0l-2.1,1.4v-1l2.1-1.5h1v7.8h-1Z"/><path class="cls-3" d="M295.1,176.7a2.3,2.3,0,0,1,2.5,2.2c0,.8-.4,1.4-1.6,2.8l-1.9,2v.1h3.6v.9h-5V184l2.7-2.9c1-1.1,1.2-1.5,1.2-2.1a1.45,1.45,0,0,0-1.5-1.4,1.42,1.42,0,0,0-1.5,1.5h-.9A2.26,2.26,0,0,1,295.1,176.7Z"/><path class="cls-3" d="M307.7,181.8c0,1.8-1,3-2.4,3a2,2,0,0,1-1.8-1h-.1v2.8h-.9v-7.7h.9v1h.1a2.14,2.14,0,0,1,1.9-1.1C306.7,178.8,307.7,180,307.7,181.8Zm-1,0c0-1.4-.6-2.2-1.7-2.2s-1.7.8-1.7,2.2.7,2.2,1.7,2.2S306.7,183.1,306.7,181.8Z"/><path class="cls-3" d="M308.9,181.8c0-1.9,1-3,2.7-3s2.7,1.1,2.7,3-1,3-2.7,3S308.9,183.6,308.9,181.8Zm4.3,0c0-1.4-.6-2.2-1.7-2.2s-1.7.8-1.7,2.2.6,2.2,1.7,2.2S313.2,183.1,313.2,181.8Z"/><path class="cls-3" d="M315.5,177.1a.58.58,0,0,1,.6-.6.6.6,0,1,1-.6.6Zm.2,1.8h.9v5.8h-.9Z"/><path class="cls-3" d="M318.4,178.9h.9v.9h.1a1.82,1.82,0,0,1,1.7-1,1.87,1.87,0,0,1,2,2.1v3.7h-.9v-3.5c0-1-.4-1.5-1.4-1.5a1.4,1.4,0,0,0-1.5,1.6v3.4h-.9v-5.7Z"/><path class="cls-3" d="M326.1,177.4v1.5h1.3v.8h-1.3V183c0,.7.3,1,.9,1h.4v.8a4.33,4.33,0,0,0-.5.1c-1.2,0-1.7-.4-1.7-1.5v-3.5h-.9v-.8h.9v-1.5h.9v-.2Z"/><path class="cls-3" d="M330.7,178.8c1.2,0,2.1.6,2.2,1.6H332c-.1-.5-.6-.8-1.3-.8s-1.2.3-1.2.9c0,.4.3.6,1,.8l.9.2c1.1.3,1.6.7,1.6,1.6a2.07,2.07,0,0,1-2.3,1.8c-1.3,0-2.2-.6-2.3-1.6h1a1.31,1.31,0,0,0,1.4.8c.8,0,1.3-.4,1.3-.9s-.3-.7-.9-.8l-1-.2c-1.1-.3-1.6-.7-1.6-1.6C328.5,179.5,329.5,178.8,330.7,178.8Z"/><line class="cls-4" x1="280" y1="58.5" x2="291" y2="58.5"/><line class="cls-5" x1="280" y1="58.5" x2="291" y2="58.5"/><line class="cls-4" x1="280" y1="1.5" x2="291" y2="1.5"/><line class="cls-5" x1="280" y1="1.5" x2="291" y2="1.5"/><line class="cls-6" x1="285.5" y1="3" x2="285.5" y2="57"/><path class="cls-3" d="M281.2,9.1c.2.1.5.1.6-.1l3.7-5.8L289.2,9a.43.43,0,1,0,.7-.5l-4.1-6.4a.5.5,0,0,0-.8,0l-4.1,6.4a.35.35,0,0,1-.1.2C281,8.9,281,9,281.2,9.1Z"/><path class="cls-3" d="M281.2,50.9c.2-.1.5-.1.6.1l3.7,5.8,3.7-5.8a.43.43,0,1,1,.7.5l-4.1,6.4a.5.5,0,0,1-.8,0l-4.1-6.4a.35.35,0,0,0-.1-.2C281,51.1,281,51,281.2,50.9Z"/><line class="cls-4" x1="267" y1="346.5" x2="278" y2="346.5"/><line class="cls-5" x1="267" y1="346.5" x2="278" y2="346.5"/><line class="cls-4" x1="267" y1="1.5" x2="278" y2="1.5"/><line class="cls-5" x1="267" y1="1.5" x2="278" y2="1.5"/><line class="cls-6" x1="272.5" y1="3" x2="272.5" y2="345"/><path class="cls-3" d="M268.2,9.1c.2.1.5.1.6-.1l3.7-5.8L276.2,9a.43.43,0,1,0,.7-.5l-4.1-6.4a.5.5,0,0,0-.8,0l-4.1,6.4a.35.35,0,0,1-.1.2C268,8.9,268,9,268.2,9.1Z"/><path class="cls-3" d="M268.2,338.9c.2-.1.5-.1.6.1l3.7,5.8,3.7-5.8a.43.43,0,0,1,.7.5l-4.1,6.4a.5.5,0,0,1-.8,0l-4.1-6.4a.35.35,0,0,0-.1-.2C268,339.1,268,339,268.2,338.9Z"/><path class="cls-3" d="M165.1,370.3h.9a1.39,1.39,0,0,0,1.5-1.4,1.32,1.32,0,0,0-1.5-1.3,1.47,1.47,0,0,0-1.6,1.3h-.9a2.36,2.36,0,0,1,2.5-2.2,2.18,2.18,0,0,1,2.4,2,1.73,1.73,0,0,1-1.4,1.8v.1a1.79,1.79,0,0,1,1.7,1.9,2.5,2.5,0,0,1-2.7,2.3c-1.6,0-2.7-.9-2.7-2.2h.9A1.68,1.68,0,0,0,166,374a1.53,1.53,0,0,0,1.7-1.5c0-.9-.7-1.5-1.8-1.5h-1v-.7h.2Z"/><path class="cls-3" d="M174.2,367.9h0l-4.1-.1v-.9h5.1v.9l-3.4,6.9h-1Z"/><path class="cls-3" d="M176.5,372.6h1a1.73,1.73,0,1,0,1.7-2.2,1.7,1.7,0,0,0-1.6.9h-.9l.4-4.4h4.3v.9h-3.6l-.2,2.5h.1a2.18,2.18,0,0,1,1.6-.7,2.44,2.44,0,0,1,2.5,2.6,2.49,2.49,0,0,1-2.7,2.6A2.45,2.45,0,0,1,176.5,372.6Z"/><path class="cls-3" d="M191.8,371.8c0,1.8-1,3-2.4,3a2,2,0,0,1-1.8-1h-.1v2.8h-.9v-7.7h.9v1h.1a2.14,2.14,0,0,1,1.9-1.1C190.8,368.8,191.8,370,191.8,371.8Zm-1,0c0-1.4-.6-2.2-1.7-2.2s-1.7.8-1.7,2.2.7,2.2,1.7,2.2S190.8,373.1,190.8,371.8Z"/><path class="cls-3" d="M192.9,371.8c0-1.9,1-3,2.7-3s2.7,1.1,2.7,3-1,3-2.7,3S192.9,373.6,192.9,371.8Zm4.4,0c0-1.4-.6-2.2-1.7-2.2s-1.7.8-1.7,2.2.6,2.2,1.7,2.2S197.3,373.1,197.3,371.8Z"/><path class="cls-3" d="M199.5,367.1a.58.58,0,0,1,.6-.6.6.6,0,1,1-.6.6Zm.2,1.8h.9v5.8h-.9Z"/><path class="cls-3" d="M202.4,368.9h.9v.9h.1a1.82,1.82,0,0,1,1.7-1,1.87,1.87,0,0,1,2,2.1v3.7h-.9v-3.5c0-1-.4-1.5-1.4-1.5a1.4,1.4,0,0,0-1.5,1.6v3.4h-.9v-5.7Z"/><path class="cls-3" d="M210.1,367.4v1.5h1.3v.8h-1.3V373c0,.7.3,1,.9,1h.4v.8a4.33,4.33,0,0,0-.5.1c-1.2,0-1.7-.4-1.7-1.5v-3.5h-.9v-.8h.9v-1.5h.9v-.2Z"/><path class="cls-3" d="M214.7,368.8c1.2,0,2.1.6,2.2,1.6H216c-.1-.5-.6-.8-1.3-.8s-1.2.3-1.2.9c0,.4.3.6,1,.8l.9.2c1.1.3,1.6.7,1.6,1.6a2.07,2.07,0,0,1-2.3,1.8c-1.3,0-2.2-.6-2.3-1.6h1a1.31,1.31,0,0,0,1.4.8c.8,0,1.3-.4,1.3-.9s-.3-.7-.9-.8l-1-.2c-1.1-.3-1.6-.7-1.6-1.6A1.88,1.88,0,0,1,214.7,368.8Z"/><line class="cls-4" x1="263.5" y1="361" x2="263.5" y2="350"/><line class="cls-5" x1="263.5" y1="361" x2="263.5" y2="350"/><line class="cls-4" x1="107.5" y1="361" x2="107.5" y2="350"/><line class="cls-5" x1="107.5" y1="361" x2="107.5" y2="350"/><line class="cls-6" x1="109" y1="355.5" x2="262" y2="355.5"/><path class="cls-3" d="M115.1,359.8c.1-.2.1-.5-.1-.6l-5.8-3.7,5.8-3.7a.43.43,0,1,0-.5-.7l-6.4,4.1a.5.5,0,0,0,0,.8l6.4,4.1a.35.35,0,0,1,.2.1C114.9,360,115,360,115.1,359.8Z"/><path class="cls-3" d="M255.9,359.8c-.1-.2-.1-.5.1-.6l5.8-3.7-5.8-3.7a.43.43,0,1,1,.5-.7l6.4,4.1a.5.5,0,0,1,0,.8l-6.4,4.1a.35.35,0,0,0-.2.1C256.1,360,256,360,255.9,359.8Z"/><path class="cls-7" d="M107,59V324.1c0,3.3,0,5.2.1,7a20.21,20.21,0,0,0,.7,4.5,14.3,14.3,0,0,0,10.6,10.6,20.21,20.21,0,0,0,4.5.7c1.8.1,3.7.1,7,.1h111c3.3,0,5.2,0,7-.1a20.22,20.22,0,0,0,4.5-.7A14.3,14.3,0,0,0,263,335.6a19.32,19.32,0,0,0,.7-4.5c.1-1.8.1-3.7.1-7V59Z"/><path class="cls-8" d="M163.9,180.1a.82.82,0,0,1,.9-.8c.6,0,.9.3.9.8a.91.91,0,0,1-1.8,0Zm.2,1.6h1.6v5.9h-1.6Z"/><path class="cls-8" d="M170.6,179.9a2.57,2.57,0,0,1,2.7,2.7,2.6,2.6,0,0,1-2.8,2.7H169v2.4h-1.6v-7.8h3.2Zm-1.6,4h1.2a1.32,1.32,0,0,0,1.5-1.3c0-.9-.5-1.4-1.5-1.4H169Z"/><path class="cls-8" d="M174.7,179.5h1.5v3.2h.1a1.8,1.8,0,0,1,1.8-1.1c1.3,0,2,.8,2,2.2v3.8h-1.6v-3.4c0-.8-.4-1.2-1.1-1.2s-1.2.5-1.2,1.3v3.4h-1.6l.1-8.2Z"/><path class="cls-8" d="M181.4,184.7a2.91,2.91,0,1,1,2.9,3.1A2.79,2.79,0,0,1,181.4,184.7Zm4.2,0c0-1.1-.5-1.8-1.3-1.8s-1.3.7-1.3,1.8.5,1.8,1.3,1.8S185.6,185.9,185.6,184.7Z"/><path class="cls-8" d="M188.5,181.7H190v1h.1a1.8,1.8,0,0,1,1.8-1.1c1.3,0,2,.8,2,2.2v3.8h-1.6v-3.5c0-.8-.3-1.2-1.1-1.2a1.18,1.18,0,0,0-1.2,1.3v3.4h-1.6l.1-5.9Z"/><path class="cls-8" d="M200.7,186a2.5,2.5,0,0,1-2.7,1.8c-1.8,0-2.9-1.1-2.9-3.1s1.1-3.1,2.8-3.1a2.68,2.68,0,0,1,2.8,3v.5h-4.1v.1a1.27,1.27,0,0,0,1.4,1.4,1.21,1.21,0,0,0,1.2-.6h1.5Zm-4.1-1.9h2.5a1.18,1.18,0,0,0-1.2-1.3A1.32,1.32,0,0,0,196.6,184.1Z"/><path class="cls-8" d="M207,183.8l-2.5-3.8h1.9l1.6,2.7h.1l1.6-2.7h1.8l-2.6,3.9,2.5,3.9h-1.8L208,185h-.1l-1.7,2.6h-1.8Z"/></svg>